<svg width="48" height="48" viewBox="0 0 48 48" fill="none" xmlns="http://www.w3.org/2000/svg">
<rect width="48" height="48" rx="24" fill="#E16C28" fill-opacity="0.1"/>
<path d="M22 27L18.9247 30.1137C18.4958 30.548 18.2813 30.7652 18.097 30.7805C17.937 30.7938 17.7804 30.7295 17.676 30.6076C17.5556 30.4672 17.5556 30.162 17.5556 29.5515V27.9916C17.5556 27.444 17.1071 27.0477 16.5652 26.9683V26.9683C15.2537 26.7762 14.2238 25.7463 14.0317 24.4348C14 24.2186 14 23.9605 14 23.4444V18.8C14 17.1198 14 16.2798 14.327 15.638C14.6146 15.0735 15.0735 14.6146 15.638 14.327C16.2798 14 17.1198 14 18.8 14H26.2C27.8802 14 28.7202 14 29.362 14.327C29.9265 14.6146 30.3854 15.0735 30.673 15.638C31 16.2798 31 17.1198 31 18.8V23M31 34L28.8236 32.4869C28.5177 32.2742 28.3647 32.1678 28.1982 32.0924C28.0504 32.0255 27.8951 31.9768 27.7356 31.9474C27.5558 31.9143 27.3695 31.9143 26.9969 31.9143H25.2C24.0799 31.9143 23.5198 31.9143 23.092 31.6963C22.7157 31.5046 22.4097 31.1986 22.218 30.8223C22 30.3944 22 29.8344 22 28.7143V26.2C22 25.0799 22 24.5198 22.218 24.092C22.4097 23.7157 22.7157 23.4097 23.092 23.218C23.5198 23 24.0799 23 25.2 23H30.8C31.9201 23 32.4802 23 32.908 23.218C33.2843 23.4097 33.5903 23.7157 33.782 24.092C34 24.5198 34 25.0799 34 26.2V28.9143C34 29.8462 34 30.3121 33.8478 30.6797C33.6448 31.1697 33.2554 31.5591 32.7654 31.762C32.3978 31.9143 31.9319 31.9143 31 31.9143V34Z" stroke="#E16C28" stroke-width="2" stroke-linecap="round" stroke-linejoin="round"/>
</svg>
