<svg width="48" height="48" viewBox="0 0 48 48" fill="none" xmlns="http://www.w3.org/2000/svg">
<rect width="48" height="48" rx="24" fill="#E16C28" fill-opacity="0.1"/>
<path d="M20 33V19C20 18.07 20 17.605 20.1022 17.2235C20.3796 16.1883 21.1883 15.3796 22.2235 15.1022C22.605 15 23.07 15 24 15C24.93 15 25.395 15 25.7765 15.1022C26.8117 15.3796 27.6204 16.1883 27.8978 17.2235C28 17.605 28 18.07 28 19V33M17.2 33H30.8C31.9201 33 32.4802 33 32.908 32.782C33.2843 32.5903 33.5903 32.2843 33.782 31.908C34 31.4802 34 30.9201 34 29.8V22.2C34 21.0799 34 20.5198 33.782 20.092C33.5903 19.7157 33.2843 19.4097 32.908 19.218C32.4802 19 31.9201 19 30.8 19H17.2C16.0799 19 15.5198 19 15.092 19.218C14.7157 19.4097 14.4097 19.7157 14.218 20.092C14 20.5198 14 21.0799 14 22.2V29.8C14 30.9201 14 31.4802 14.218 31.908C14.4097 32.2843 14.7157 32.5903 15.092 32.782C15.5198 33 16.0799 33 17.2 33Z" stroke="#E16C28" stroke-width="2" stroke-linecap="round" stroke-linejoin="round"/>
</svg>
