<svg width="48" height="48" viewBox="0 0 48 48" fill="none" xmlns="http://www.w3.org/2000/svg">
<rect width="48" height="48" rx="24" fill="#E16C28" fill-opacity="0.1"/>
<path d="M21 24L23 26L27.5 21.5M21.2019 32.6009C21.5297 32.5575 21.8607 32.6464 22.1218 32.8475L23.3251 33.7708C23.7228 34.0764 24.2761 34.0764 24.6727 33.7708L25.9215 32.812C26.1548 32.6331 26.4492 32.5542 26.7403 32.5931L28.3024 32.7986C28.799 32.8642 29.2779 32.5875 29.4701 32.1242L30.0712 30.6709C30.1834 30.3987 30.3989 30.1832 30.6711 30.0709L32.1243 29.4698C32.5876 29.2787 32.8643 28.7988 32.7987 28.3021L32.601 26.7966C32.5576 26.4688 32.6465 26.1377 32.8476 25.8766L33.7709 24.6733C34.0764 24.2755 34.0764 23.7222 33.7709 23.3256L32.812 22.0767C32.6332 21.8434 32.5543 21.549 32.5932 21.2579L32.7987 19.6957C32.8643 19.199 32.5876 18.7201 32.1243 18.5279L30.6711 17.9268C30.3989 17.8146 30.1834 17.5991 30.0712 17.3269L29.4701 15.8736C29.279 15.4102 28.799 15.1336 28.3024 15.1991L26.7403 15.4047C26.4492 15.4447 26.1548 15.3658 25.9226 15.188L24.6738 14.2292C24.2761 13.9236 23.7228 13.9236 23.3262 14.2292L22.0774 15.188C21.8441 15.3658 21.5496 15.4447 21.2586 15.4069L19.6965 15.2014C19.1998 15.1358 18.721 15.4125 18.5288 15.8758L17.9288 17.3291C17.8155 17.6002 17.6 17.8157 17.3289 17.9291L15.8757 18.529C15.4124 18.7213 15.1357 19.2001 15.2013 19.6968L15.4068 21.259C15.4446 21.5501 15.3657 21.8445 15.188 22.0767L14.2291 23.3256C13.9236 23.7233 13.9236 24.2767 14.2291 24.6733L15.188 25.9222C15.3668 26.1555 15.4457 26.4499 15.4068 26.741L15.2013 28.3032C15.1357 28.7999 15.4124 29.2787 15.8757 29.471L17.3289 30.0721C17.6011 30.1843 17.8166 30.3998 17.9288 30.672L18.5299 32.1253C18.721 32.5887 19.201 32.8653 19.6976 32.7998L21.2019 32.6009Z" stroke="#E16C28" stroke-width="2" stroke-linecap="round" stroke-linejoin="round"/>
</svg>
