<svg width="494" height="72" viewBox="0 0 494 72" fill="none" xmlns="http://www.w3.org/2000/svg">
<g clip-path="url(#clip0_140_658)">
<path d="M0.253418 4.32003C16.4668 4.1067 32.6934 4.32003 48.9201 4.24003C48.9201 8.84003 48.9334 13.4267 48.9201 18.0134C44.2534 18.0267 39.5868 18 34.9201 18C34.8934 22.68 34.9201 27.3467 34.9334 32.0267C31.2934 35.5334 27.2934 38.7067 24.1868 42.7334C28.1468 40.4667 31.5468 37.4134 34.8934 34.3467C34.9068 35.7334 34.9334 38.4934 34.9468 39.88C31.6934 43.3467 28.2134 46.6 25.1334 50.2267C28.5068 47.9867 31.6401 45.4134 34.8401 42.9334C34.8668 44.1467 34.9468 46.56 34.9734 47.76C31.8134 51.0667 28.1734 53.8667 24.8134 56.96C28.2801 54.8 31.5468 52.3334 34.9201 50.0534C34.9468 55.1067 34.9201 60.1734 35.0001 65.24C29.2134 65.28 23.4134 65.2667 17.6134 65.2667C17.5201 49.52 17.6934 33.7867 17.6401 18.0534C13.3068 18 8.97342 18 4.62675 18.0134C3.05342 13.48 1.58675 8.92003 0.253418 4.32003Z" fill="#DF6D27"/>
<path d="M70.4002 28.9067C73.8135 18.1867 84.7202 10.24 96.0535 10.8667C103.147 10.5467 109.734 13.84 114.88 18.4933C111.574 21.9067 108.174 25.2267 104.84 28.6C102.107 27.1067 99.4535 24.8267 96.1602 24.9333C90.4269 24.5467 84.9069 29 83.8002 34.6C81.4269 42.88 89.8535 52.16 98.3335 50.0267C102.68 49.08 105.414 45.32 107.4 41.64C104.16 41.4933 100.92 41.4533 97.6802 41.4267C97.6135 38.9467 97.5602 36.4667 97.5335 34C105.68 33.8667 113.827 33.84 121.974 34.0133C122.147 40.44 121.934 47.3333 118.067 52.8C110.774 64.6133 93.6269 67.6667 81.9202 60.8533C70.8669 54.96 66.3335 40.4533 70.4002 28.9067Z" fill="#DF6D27"/>
<path d="M195.307 15.3867C201.8 9.73335 211.04 10.5867 219 11.4134C220.6 16.48 222.2 21.5334 223.774 26.6134C217.92 24.28 209.827 20.4267 204.387 25.28C204.507 25.9467 204.76 27.2667 204.88 27.92C211.707 31.6534 220.16 31.4667 226.6 36.1067C232.08 39.9467 232.654 47.7733 230.76 53.6667C228.24 61.32 219.36 64.3067 212.014 64.4933C203.654 65.12 195.614 62.2 188.24 58.56C190.107 54.7067 192.36 51.0534 194.707 47.4667C201.467 51.28 209.414 52.8667 217.054 51.0667C216.667 49.44 217.307 46.9467 215.347 46.16C207.667 42.72 197.68 43.2534 192.04 36.0667C188.094 29.6534 188.987 20.0134 195.307 15.3867Z" fill="#DF6D27"/>
<path d="M51.667 12.2534C56.5337 12.2534 61.387 12.24 66.2403 12.2534C66.107 29.1867 66.3737 46.1334 66.0403 63.0667C61.267 63.0134 56.4937 63.0134 51.7203 63.0267C51.6137 46.1067 51.7603 29.1734 51.667 12.2534Z" fill="#DF6D27"/>
<path d="M124.68 12.2534C133.8 12.2934 142.92 12.1867 152.04 12.2934C159.227 12.2134 165.96 18.0534 166.64 25.2534C168.014 31.9867 164.587 38.8667 158.587 42.0667C162.107 49.0534 165.76 55.9734 169.334 62.9334C164.014 63.0267 158.694 63.04 153.36 62.9867C150.08 56.64 147.347 50.0267 144.24 43.5867C142.574 43.76 140.907 43.9467 139.24 44.1467C139.04 50.0134 139.4 55.88 138.96 61.7334C134.974 64.48 129.4 62.3867 124.787 62.96C124.587 46.0667 124.747 29.16 124.68 12.2534ZM139.214 23.1067C139.174 27.08 139.16 31.0534 139.294 35.0134C143.2 34.6667 148.28 35.7067 150.96 32.04C151.654 29.9334 151.694 27.56 150.84 25.5067C148.04 21.92 143.107 23.4134 139.214 23.1067Z" fill="#DF6D27"/>
<path d="M171.04 12.2667C175.76 12.24 180.48 12.24 185.187 12.2667C185.08 29.1867 185.294 46.12 185.04 63.04C180.387 63.04 175.734 63.04 171.08 63C170.96 46.0934 171.04 29.1734 171.04 12.2667Z" fill="#DF6D27"/>
<path d="M228 4.18664C233.867 4.18664 239.733 4.17331 245.613 4.19997C245.827 5.19997 246.28 7.18664 246.493 8.18664C243.893 10.5466 241.293 12.9066 239.027 15.6C241.933 13.8666 244.653 11.8666 247.4 9.89331C249.76 16.1733 242.84 19.1733 239.787 23.44C242.96 21.3333 245.947 18.9466 249 16.6666C251.213 23.24 243.28 25.96 239.72 29.92C243.267 27.72 246.653 25.2533 250.053 22.84C252.187 28.6933 253.453 34.7866 255.027 40.7866C258.467 28.64 261.613 16.4 264.773 4.17331C268.48 4.15997 272.2 4.17331 275.92 4.26664C279.027 16.4666 282.333 28.6133 285.88 40.6933C289.013 28.5466 291.907 16.3333 294.973 4.15997C300.707 4.17331 306.453 4.14664 312.2 4.22664C306.307 24.6266 300.013 44.9066 294.173 65.32C289.013 65.32 283.853 65.3466 278.693 65.2266C276.307 54.8933 273.067 44.8 270.587 34.4933C268 44.8133 265 55.0133 262.453 65.3333C257.307 65.32 252.16 65.3466 247.027 65.2266C240.893 44.8133 234.173 24.5866 228 4.18664Z" fill="#181F3B"/>
<path d="M325.867 11.5999C333.84 9.71995 342.813 10.8399 349.347 16.0666C363.187 26.1466 363.16 49.8533 349.053 59.6799C336.507 68.7999 316.293 64.92 309.24 50.72C301.013 36.2266 309.453 15.4666 325.867 11.5999ZM328.44 25.9466C318.627 29.5866 318.707 45.2399 328.347 49.0666C337.16 53.5199 347.36 43.7466 344.6 34.68C343.6 27.3999 335.04 22.9466 328.44 25.9466Z" fill="#181F3B"/>
<path d="M451.453 23.1866C452.813 17.1466 458.413 12.9466 464.187 11.48C473.92 9.57331 484.426 11.0266 492.693 16.72C490.466 20.2933 488.173 23.8266 485.866 27.3466C480.64 24.5333 474.613 22.24 468.6 23.4533C466.4 24.0133 465.013 25.6933 466.333 27.8933C473.693 31.7733 482.986 31.4533 489.4 37.2533C493.72 41.7066 494.027 48.8533 491.933 54.4266C490.307 58.88 485.973 61.64 481.68 63.16C473.64 65.92 464.88 64.7466 456.986 62.08C455.426 59.1333 453.893 56.1733 452.387 53.2C453.56 51.2266 454.747 49.2533 455.933 47.28C462.507 51.0133 476.5 51.5 478 51C479.5 50.5 479.5 47.5 478.5 47C477.5 46.5 461.813 44.0533 455.227 38.16C450.84 34.6 450.44 28.3466 451.453 23.1866Z" fill="#181F3B"/>
<path d="M362.013 12.1733C371.147 12.2266 380.293 12.0666 389.427 12.2C397.64 12.1466 404.88 19.8 404.227 28.04C404.707 34.0933 400.867 39.2666 395.853 42.1866C399.613 49.1333 403.28 56.12 406.893 63.1333C401.413 63.1733 395.947 63.16 390.467 63.1466C387.507 56.8 384.707 50.3733 381.613 44.0933C379.947 44.12 378.28 44.1466 376.627 44.16C376.667 50.4933 376.64 56.8266 376.613 63.16C371.747 63.16 366.88 63.16 362.027 63.16C361.987 46.16 362 29.1733 362.013 12.1733ZM376.627 23.0666C376.627 26.9866 376.64 30.9066 376.653 34.8266C379.987 34.5333 383.693 35.2266 386.68 33.4266C389.187 32.0666 388.76 28.8533 388.493 26.48C386.347 21.9466 380.627 23.4 376.627 23.0666Z" fill="#181F3B"/>
<path d="M408.213 12.1866C412.96 12.1866 417.72 12.1866 422.467 12.2133C422.493 18.0266 422.48 23.8533 422.533 29.6666C427.067 23.9066 431.467 18.04 435.907 12.1999C441.787 12.1599 447.667 12.1333 453.56 12.28C448.4 18.2133 443.307 24.2133 438.067 30.08C444.013 40.9733 449.627 52.0666 455.32 63.1066C449.613 63.1866 443.907 63.1599 438.2 63.1599C434.667 55.9866 431.04 48.8533 427.6 41.6266C425.893 43.6933 424.173 45.7466 422.467 47.8133C422.507 52.92 422.507 58.0266 422.467 63.1333C417.707 63.1599 412.96 63.16 408.213 63.1466C408.2 46.16 408.227 29.1733 408.213 12.1866Z" fill="#181F3B"/>
</g>
<defs>
<clipPath id="clip0_140_658">
<rect width="493.333" height="72" fill="white"/>
</clipPath>
</defs>
</svg>
