<svg width="40" height="40" viewBox="0 0 40 40" fill="none" xmlns="http://www.w3.org/2000/svg">
<path d="M30.0002 21.6667L27.8341 10.8364C27.7131 10.2314 27.6526 9.92889 27.5055 9.68255C27.3754 9.46477 27.1974 9.27955 26.9849 9.141C26.7446 8.98429 26.4447 8.91191 25.8449 8.76714L3.3335 3.33334M3.3335 3.33334L8.76729 25.8448C8.91206 26.4445 8.98444 26.7444 9.14116 26.9847C9.27971 27.1972 9.46493 27.3753 9.68271 27.5053C9.92904 27.6525 10.2315 27.713 10.8365 27.834L21.6668 30M3.3335 3.33334L15.9768 15.9767M26.8858 34.7811L34.7812 26.8856C35.4412 26.2256 35.7713 25.8956 35.8949 25.515C36.0037 25.1803 36.0037 24.8197 35.8949 24.485C35.7713 24.1044 35.4412 23.7744 34.7812 23.1144L33.5524 21.8856C32.8924 21.2256 32.5624 20.8956 32.1819 20.7719C31.8471 20.6632 31.4865 20.6632 31.1518 20.7719C30.7713 20.8956 30.4412 21.2256 29.7812 21.8856L21.8858 29.7811C21.2258 30.4411 20.8957 30.7711 20.7721 31.1516C20.6633 31.4864 20.6633 31.847 20.7721 32.1817C20.8957 32.5623 21.2258 32.8923 21.8858 33.5523L23.1145 34.7811C23.7746 35.4411 24.1046 35.7711 24.4851 35.8947C24.8199 36.0035 25.1805 36.0035 25.5152 35.8947C25.8957 35.7711 26.2258 35.4411 26.8858 34.7811ZM21.6668 18.3333C21.6668 20.1743 20.1744 21.6667 18.3335 21.6667C16.4925 21.6667 15.0002 20.1743 15.0002 18.3333C15.0002 16.4924 16.4925 15 18.3335 15C20.1744 15 21.6668 16.4924 21.6668 18.3333Z" stroke="#E16C28" stroke-width="2.56881" stroke-linecap="round" stroke-linejoin="round"/>
</svg>
