<svg width="40" height="40" viewBox="0 0 40 40" fill="none" xmlns="http://www.w3.org/2000/svg">
<path d="M16.6666 29.431V33.3333C16.6666 35.1743 18.159 36.6667 19.9999 36.6667C21.8409 36.6667 23.3333 35.1743 23.3333 33.3333V29.431M19.9999 3.33334V5.00001M4.99992 20H3.33325M9.16659 9.16668L8.16642 8.16651M30.8333 9.16668L31.8337 8.16651M36.6666 20H34.9999M29.9999 20C29.9999 25.5229 25.5228 30 19.9999 30C14.4771 30 9.99992 25.5229 9.99992 20C9.99992 14.4772 14.4771 10 19.9999 10C25.5228 10 29.9999 14.4772 29.9999 20Z" stroke="#E16C28" stroke-width="2.56881" stroke-linecap="round" stroke-linejoin="round"/>
</svg>
