<svg width="40" height="40" viewBox="0 0 40 40" fill="none" xmlns="http://www.w3.org/2000/svg">
<path d="M19.9998 25L14.9998 20M19.9998 25C22.3279 24.1146 24.5613 22.9979 26.6665 21.6667M19.9998 25V33.3334C19.9998 33.3334 25.0498 32.4167 26.6665 30C28.4665 27.3 26.6665 21.6667 26.6665 21.6667M14.9998 20C15.8867 17.6991 17.0035 15.4935 18.3332 13.4167C20.2751 10.3117 22.9792 7.75511 26.1882 5.99018C29.3971 4.22525 33.0043 3.31064 36.6665 3.33336C36.6665 7.86669 35.3665 15.8334 26.6665 21.6667M14.9998 20H6.6665C6.6665 20 7.58317 14.95 9.99984 13.3334C12.6998 11.5334 18.3332 13.3334 18.3332 13.3334M7.49984 27.5C4.99984 29.6 4.1665 35.8334 4.1665 35.8334C4.1665 35.8334 10.3998 35 12.4998 32.5C13.6832 31.1 13.6665 28.95 12.3498 27.65C11.702 27.0317 10.8487 26.6744 9.95355 26.6467C9.05844 26.6191 8.18463 26.9229 7.49984 27.5Z" stroke="#E16C28" stroke-width="2.56881" stroke-linecap="round" stroke-linejoin="round"/>
</svg>
