<svg width="35" height="35" viewBox="0 0 35 35" fill="none" xmlns="http://www.w3.org/2000/svg">
<path d="M23.0528 10.7189C22.3928 10.0589 22.0628 9.72889 21.9391 9.34834C21.8304 9.0136 21.8304 8.65302 21.9391 8.31828C22.0628 7.93774 22.3928 7.60772 23.0528 6.94769L27.7834 2.21707C26.5281 1.64935 25.1346 1.33331 23.6672 1.33331C18.1444 1.33331 13.6672 5.81047 13.6672 11.3333C13.6672 12.1517 13.7655 12.9471 13.951 13.7085C14.1496 14.5237 14.2489 14.9313 14.2312 15.1889C14.2128 15.4585 14.1726 15.6019 14.0483 15.8418C13.9295 16.071 13.702 16.2985 13.2469 16.7536L2.83387 27.1666C1.45316 28.5474 1.45316 30.7859 2.83387 32.1666C4.21459 33.5474 6.45316 33.5474 7.83387 32.1666L18.2469 21.7536C18.702 21.2985 18.9295 21.071 19.1587 20.9523C19.3986 20.8279 19.5421 20.7877 19.8117 20.7693C20.0692 20.7516 20.4768 20.8509 21.2921 21.0495C22.0534 21.235 22.8488 21.3333 23.6672 21.3333C29.1901 21.3333 33.6672 16.8562 33.6672 11.3333C33.6672 9.86597 33.3512 8.47244 32.7834 7.21707L28.0528 11.9477C27.3928 12.6077 27.0628 12.9377 26.6822 13.0614C26.3475 13.1701 25.9869 13.1701 25.6522 13.0614C25.2716 12.9377 24.9416 12.6077 24.2816 11.9477L23.0528 10.7189Z" stroke="#E16C28" stroke-width="2.56881" stroke-linecap="round" stroke-linejoin="round"/>
</svg>
