<svg width="275" height="95" viewBox="0 0 275 95" fill="none" xmlns="http://www.w3.org/2000/svg">
<path d="M151.452 0.269371C123.831 -1.29764 96.872 4.2277 74.2985 12.1036C52.0562 19.8733 32.7322 29.9038 17.7778 41.4442C10.1902 47.3042 3.50169 53.7354 1.00929 60.738C-1.30959 67.2183 0.125909 74.1882 6.97212 79.8441C13.8183 85.5 24.5767 88.8055 35.8871 91.0335C49.2009 93.6616 63.4928 94.8286 77.7058 94.9837C105.769 95.2857 134.1 92.0456 160.46 87.2466C186.819 82.4476 210.544 75.9103 232.534 67.5774C252.757 59.9219 272.965 49.72 274.826 36.0168C275.678 29.7406 272.428 23.4154 264.099 18.7062C255.77 13.997 244.476 11.5078 233.086 9.81834C204.944 5.64781 174.594 5.85185 145.9 8.17788C117.206 10.5039 86.9813 15.4743 58.5238 20.7792C51.6302 22.0606 44.7683 23.3828 37.9063 24.6968C37.0387 24.86 35.477 25.415 36.2815 25.9618C37.086 26.5086 39.3575 26.174 40.304 25.9945C67.263 20.8527 94.3323 15.7191 122.332 12.2994C150.332 8.87977 178.553 7.28827 206.711 9.22255C229.427 10.7814 258.294 14.4704 266.466 27.1534C270.204 32.9562 269.116 39.363 264.935 45.0189C260.519 51.0013 252.426 56.1104 243.419 60.4197C234.411 64.729 223.622 68.72 212.895 72.2213C202.168 75.7225 190.495 78.9708 178.648 81.6968C154.797 87.1895 129.257 91.0172 103.292 92.5679C89.5053 93.3922 75.4658 93.4902 61.7418 92.3394C49.2798 91.2947 36.6443 89.3196 26.0753 85.6388C15.8059 82.0722 8.88086 76.7999 6.75128 70.4747C4.62169 64.1495 7.35071 57.2612 12.5406 51.2543C17.8409 45.1087 25.46 39.4365 33.5682 34.1968C41.6764 28.9571 50.6207 24.2152 60.4167 19.8978C79.8512 11.3201 103.245 3.82779 128.974 2.04042C135.252 1.5997 141.641 1.52624 147.935 1.88535C149.307 1.9588 150.963 1.84454 152.005 1.32221C152.777 0.930454 152.762 0.342825 151.452 0.269371Z" fill="#E16C28"/>
</svg>
