<svg width="48" height="48" viewBox="0 0 48 48" fill="none" xmlns="http://www.w3.org/2000/svg">
<rect width="48" height="48" rx="24" fill="#E16C28" fill-opacity="0.1"/>
<path d="M21 19H16.6C16.0399 19 15.7599 19 15.546 19.109C15.3578 19.2049 15.2049 19.3578 15.109 19.546C15 19.7599 15 20.0399 15 20.6V31.4C15 31.9601 15 32.2401 15.109 32.454C15.2049 32.6422 15.3578 32.7951 15.546 32.891C15.7599 33 16.0399 33 16.6 33H21M21 33H27M21 33L21 16.6C21 16.0399 21 15.7599 21.109 15.546C21.2049 15.3578 21.3578 15.2049 21.546 15.109C21.7599 15 22.0399 15 22.6 15L25.4 15C25.9601 15 26.2401 15 26.454 15.109C26.6422 15.2049 26.7951 15.3578 26.891 15.546C27 15.7599 27 16.0399 27 16.6V33M27 23H31.4C31.9601 23 32.2401 23 32.454 23.109C32.6422 23.2049 32.7951 23.3578 32.891 23.546C33 23.7599 33 24.0399 33 24.6V31.4C33 31.9601 33 32.2401 32.891 32.454C32.7951 32.6422 32.6422 32.7951 32.454 32.891C32.2401 33 31.9601 33 31.4 33H27" stroke="#E16C28" stroke-width="2" stroke-linecap="round" stroke-linejoin="round"/>
</svg>
