<svg width="48" height="48" viewBox="0 0 48 48" fill="none" xmlns="http://www.w3.org/2000/svg">
<rect width="48" height="48" rx="24" fill="#E16C28" fill-opacity="0.1"/>
<path d="M23 16.5H30.3C31.4201 16.5 31.9802 16.5 32.408 16.718C32.7843 16.9097 33.0903 17.2157 33.282 17.592C33.5 18.0198 33.5 18.5799 33.5 19.7V21C33.5 21.9319 33.5 22.3978 33.3478 22.7654C33.1448 23.2554 32.7554 23.6448 32.2654 23.8478C31.8978 24 31.4319 24 30.5 24M25 31.5H17.7C16.5799 31.5 16.0198 31.5 15.592 31.282C15.2157 31.0903 14.9097 30.7843 14.718 30.408C14.5 29.9802 14.5 29.4201 14.5 28.3V27C14.5 26.0681 14.5 25.6022 14.6522 25.2346C14.8552 24.7446 15.2446 24.3552 15.7346 24.1522C16.1022 24 16.5681 24 17.5 24M22.3 26.5H25.7C25.98 26.5 26.12 26.5 26.227 26.4455C26.3211 26.3976 26.3976 26.3211 26.4455 26.227C26.5 26.12 26.5 25.98 26.5 25.7V22.3C26.5 22.02 26.5 21.88 26.4455 21.773C26.3976 21.6789 26.3211 21.6024 26.227 21.5545C26.12 21.5 25.98 21.5 25.7 21.5H22.3C22.02 21.5 21.88 21.5 21.773 21.5545C21.6789 21.6024 21.6024 21.6789 21.5545 21.773C21.5 21.88 21.5 22.02 21.5 22.3V25.7C21.5 25.98 21.5 26.12 21.5545 26.227C21.6024 26.3211 21.6789 26.3976 21.773 26.4455C21.88 26.5 22.02 26.5 22.3 26.5ZM29.8 34H33.2C33.48 34 33.62 34 33.727 33.9455C33.8211 33.8976 33.8976 33.8211 33.9455 33.727C34 33.62 34 33.48 34 33.2V29.8C34 29.52 34 29.38 33.9455 29.273C33.8976 29.1789 33.8211 29.1024 33.727 29.0545C33.62 29 33.48 29 33.2 29H29.8C29.52 29 29.38 29 29.273 29.0545C29.1789 29.1024 29.1024 29.1789 29.0545 29.273C29 29.38 29 29.52 29 29.8V33.2C29 33.48 29 33.62 29.0545 33.727C29.1024 33.8211 29.1789 33.8976 29.273 33.9455C29.38 34 29.52 34 29.8 34ZM14.8 19H18.2C18.48 19 18.62 19 18.727 18.9455C18.8211 18.8976 18.8976 18.8211 18.9455 18.727C19 18.62 19 18.48 19 18.2V14.8C19 14.52 19 14.38 18.9455 14.273C18.8976 14.1789 18.8211 14.1024 18.727 14.0545C18.62 14 18.48 14 18.2 14H14.8C14.52 14 14.38 14 14.273 14.0545C14.1789 14.1024 14.1024 14.1789 14.0545 14.273C14 14.38 14 14.52 14 14.8V18.2C14 18.48 14 18.62 14.0545 18.727C14.1024 18.8211 14.1789 18.8976 14.273 18.9455C14.38 19 14.52 19 14.8 19Z" stroke="#E16C28" stroke-width="2" stroke-linecap="round" stroke-linejoin="round"/>
</svg>
