<svg width="48" height="48" viewBox="0 0 48 48" fill="none" xmlns="http://www.w3.org/2000/svg">
<rect width="48" height="48" rx="24" fill="#E16C28" fill-opacity="0.1"/>
<path d="M34 21H14M26 29.5L28.5 27L26 24.5M22 24.5L19.5 27L22 29.5M14 19.8L14 28.2C14 29.8802 14 30.7202 14.327 31.362C14.6146 31.9265 15.0735 32.3854 15.638 32.673C16.2798 33 17.1198 33 18.8 33H29.2C30.8802 33 31.7202 33 32.362 32.673C32.9265 32.3854 33.3854 31.9265 33.673 31.362C34 30.7202 34 29.8802 34 28.2V19.8C34 18.1198 34 17.2798 33.673 16.638C33.3854 16.0735 32.9265 15.6146 32.362 15.327C31.7202 15 30.8802 15 29.2 15L18.8 15C17.1198 15 16.2798 15 15.638 15.327C15.0735 15.6146 14.6146 16.0735 14.327 16.638C14 17.2798 14 18.1198 14 19.8Z" stroke="#E16C28" stroke-width="2" stroke-linecap="round" stroke-linejoin="round"/>
</svg>
